<svg id="final_svg" viewBox="190.293701171875 368.2130126953125 719.5 299.35711669921875" xmlns="http://www.w3.org/2000/svg" xmlns:xlink="http://www.w3.org/1999/xlink" xml:space="preserve">
      <g id="png_group" transform="translate(419.79382100000004, 368.213) scale(0.7555555555555555)" opacity="1">
      <g height="115.02754577777779" width="238" transform="rotate(0)">
                  <style type="text/css">.st0{fill:#FF6839;}	.st1{fill:#3F3F3F;}</style>
          <g id="color_index_1" fill="rgba(0, 0, 0, 1)">
                          <path d="M147.11687,51.45587l-9.24884-34.52241h-0.00928c-1.20555,0.28748-2.39259,0.60275-3.5703,0.96443		l9.24539,34.50962C144.70578,52.03659,145.90221,51.72223,147.11687,51.45587z"></path>
              <path d="M155.98598,50.48901c0.62289,0,1.24103,0.01964,1.85719,0.04698V14.80984		c-1.22412-0.03713-2.48531-0.03713-3.70941,0v35.72603C154.74828,50.50871,155.36478,50.48901,155.98598,50.48901z"></path>
              <path d="M178.18214,56.98183l17.86794-30.95105c-1.05719-0.64916-2.13289-1.27047-3.21794-1.8547l-17.8624,30.94669		C176.07092,55.69518,177.14198,56.31575,178.18214,56.98183z"></path>
              <path d="M168.43544,52.4066l9.2438-34.518c-1.17776-0.3524-2.36475-0.66767-3.57028-0.95514h-0.00929		l-9.24635,34.52201C166.06764,51.72178,167.26379,52.03586,168.43544,52.4066z"></path>
              <path d="M186.42009,63.90794l25.26514-25.26519c-0.85315-0.89022-1.73415-1.77122-2.62442-2.62436l-25.2652,25.26519		C184.70915,62.11877,185.58488,62.99439,186.42009,63.90794z"></path>
              <path d="M192.58112,72.73363l30.94641-17.86222c-0.58424-1.09427-1.20555-2.16997-1.85471-3.22717l-30.95274,17.87423		C191.38683,70.55952,192.00815,71.63149,192.58112,72.73363z"></path>
              <path d="M196.24892,82.85146l34.52122-9.24754c-0.28748-1.20555-0.6028-2.40181-0.9552-3.57957l-34.51749,9.24369		C195.6683,80.44015,195.98256,81.6367,196.24892,82.85146z"></path>
              <path d="M136.99823,55.12481l-17.86272-30.94873c-1.08499,0.58424-2.16075,1.20555-3.21789,1.8547l17.87236,30.95099		C134.82883,56.31654,135.89853,55.69659,136.99823,55.12481z"></path>
              <path d="M116.67403,79.26941l-34.51205-9.24505c-0.35239,1.17776-0.67695,2.37402-0.9552,3.57957l34.51653,9.24629		C115.9895,81.63635,116.30347,80.44066,116.67403,79.26941z"></path>
              <path d="M197.16829,89.86044c0.02734,0.61639,0.04698,1.23475,0.04698,1.85787		c0,0.62097-0.01964,1.23724-0.04681,1.85153h35.7253v-3.7094H197.16829z"></path>
              <path d="M114.75668,91.71831c0-0.62312,0.01964-1.24149,0.04697-1.85787H79.08317		c-0.03708,1.22405-0.03708,2.4853,0,3.7094h35.72031C114.77631,92.95555,114.75668,92.33928,114.75668,91.71831z"></path>
              <path d="M128.17413,61.28566L102.91612,36.0276c0,0,0,0-0.00928,0c-0.89951,0.85321-1.77122,1.7342-2.61514,2.62442		l25.25806,25.25806C126.38491,62.99654,127.2607,62.12093,128.17413,61.28566z"></path>
              <path d="M121.24887,69.52316L90.29488,51.65352c-0.64915,1.05719-1.27047,2.1329-1.85471,3.21788l30.94851,17.86647		C119.96136,71.63591,120.5824,70.56411,121.24887,69.52316z"></path>
              <path d="M299.76416,100.13766h-52.46405c0.25867-2.77419,0.3923-5.58528,0.3923-8.42252		C247.69241,41.14661,206.54581,0,155.97728,0c-50.57776,0-91.72437,41.14661-91.72437,91.71514		c0,2.83724,0.13364,5.64833,0.3923,8.42252H12.18496c11.90355,15.35722,11.904,36.74678,0,52.10468h287.57919		C287.8609,136.88422,287.8605,115.49642,299.76416,100.13766z M67.96232,91.71514c0-48.52835,39.48661-88.00573,88.01496-88.00573		S243.983,43.18679,243.983,91.71514c0,2.84437-0.13968,5.65065-0.40555,8.42252H68.36781		C68.10196,97.36579,67.96232,94.55951,67.96232,91.71514z M292.9675,148.53294H18.98162		c7.88295-13.88945,7.88295-30.79642,0-44.68587H292.9675C285.08502,117.73652,285.08502,134.64349,292.9675,148.53294z"></path>
                      </g>
          <g id="color_index_0" fill="rgba(0, 0, 0, 1)">
                          <path d="M135.25887,74.9921c2.28172-6.64503,10.55658-11.56879,20.40974-11.56879		c11.40865,0,20.68996,6.59358,21.02164,14.82268c-7.7373-6.69079-15.06854-3.76286-21.65639-1.138		C148.12576,79.86433,142.0869,82.27188,135.25887,74.9921z"></path>
              <path d="M156.2805,93.97791c-11.40865,0-20.70139-6.5993-21.02164-14.8284		c7.7373,6.69651,15.07426,3.77431,21.6564,1.14372c6.9081-2.75635,12.94696-5.16389,19.77498,2.11589		C174.41425,89.05415,166.1394,93.97791,156.2805,93.97791z"></path>
              <circle cx="5.83191" cy="126.18982" r="5.83191"></circle>
              <circle cx="309.16809" cy="126.18982" r="5.83191"></circle>
                      </g>
              </g>
    </g>
    <g id="text_group" transform="rotate(0)" opacity="1">
      <g id="text_layer_1_0" fill="rgba(0, 0, 0, 1)" transform="translate(181.0137, 473.238)">
                  <path d="M14.50 129.98L14.24 129.98Q9.54 129.98 9.54 128.20L9.54 128.20Q9.54 122.86 9.92 112.05L9.92 112.05L10.17 96.03Q10.17 87.12 9.79 69.44L9.79 69.44Q9.28 53.80 9.28 42.99L9.28 42.99Q9.28 33.83 12.59 33.83L12.59 33.83Q21.11 33.83 25.76 39.30Q30.40 44.77 30.40 53.80L30.40 53.80Q30.40 63.97 22.26 74.91L22.26 74.91Q29.00 81.65 31.73 87.76Q34.47 93.86 34.47 102.38L34.47 102.38Q34.47 107.60 34.15 110.72Q33.83 113.83 32.94 116.50L32.94 116.50Q32.05 119.30 30.46 121.34Q28.87 123.37 26.20 125.15L26.20 125.15Q23.66 126.93 19.59 128.71L19.59 128.71Q18.06 129.09 17.04 129.35L17.04 129.35Q15.39 129.98 14.50 129.98L14.50 129.98ZM13.74 74.15L14.12 74.28Q16.92 74.28 19.46 71.86Q22.00 69.44 23.66 65.50L23.66 65.50Q25.31 61.81 26.20 57.81Q27.09 53.80 27.09 50.49L27.09 50.49Q27.09 46.04 23.85 42.10Q20.60 38.16 16.53 38.16L16.53 38.16Q13.23 38.16 13.23 43.62L13.23 43.62Q13.23 52.15 13.48 58.89L13.48 58.89L13.74 74.15ZM14.75 124.90L15.14 125.02Q19.46 125.02 23.08 122.42Q26.71 119.81 28.81 115.48Q30.91 111.16 30.91 106.20L30.91 106.20Q30.91 83.43 19.97 78.86L19.97 78.86Q18.95 78.86 16.66 79.49L16.66 79.49Q14.50 80.25 13.74 80.25L13.74 80.25Q14.37 100.99 14.37 124.90L14.37 124.90L14.75 124.90ZM77.46 131.26L74.40 130.11Q71.99 129.35 70.27 127.95Q68.55 126.55 67.03 123.75L67.03 123.75Q64.36 118.66 63.85 109.13L63.85 109.13Q63.59 104.80 63.59 101.49L63.59 101.49L63.59 87.00Q63.59 78.73 64.10 70.97L64.10 70.97Q64.48 65.25 65.25 61.30Q66.01 57.36 67.66 53.42L67.66 53.42Q69.44 49.35 71.61 47.69L71.61 47.69Q72.50 46.93 75.04 45.91L75.04 45.91Q76.69 45.28 78.22 44.52L78.22 44.52L83.69 44.52Q83.82 44.64 84.07 44.64L84.07 44.64L84.71 44.77L85.21 45.15Q85.60 45.53 85.60 45.66L85.60 45.66Q85.72 45.91 85.72 46.42L85.72 46.42L84.07 48.33L78.73 48.33Q76.31 48.33 74.34 50.68Q72.37 53.04 71.35 56.60L71.35 56.60Q70.33 59.78 69.70 64.10Q69.06 68.43 68.93 71.61L68.93 71.61Q68.68 75.68 68.68 77.20L68.68 77.20L68.43 77.84Q68.43 84.96 68.17 90.68L68.17 90.68L67.92 103.53Q67.92 109.13 68.68 113.83L68.68 113.83Q69.32 118.92 72.37 122.99L72.37 122.99Q75.29 127.06 81.40 127.06L81.40 127.06Q83.31 127.06 84.58 125.91L84.58 125.91Q86.49 125.91 86.49 127.31L86.49 127.31Q86.49 128.20 84.90 129.41Q83.31 130.62 81.65 131.26L81.65 131.26L77.46 131.26ZM128.97 130.87L118.54 130.87Q116.25 130.87 115.99 128.20L115.99 128.20L115.99 126.55Q116.12 125.91 116.12 125.02L116.12 125.02L115.61 124.52Q116.63 121.84 116.63 119.30L116.63 119.30Q116.63 116.38 116.25 110.91L116.25 110.91L115.99 102.51Q115.99 96.15 116.38 83.43L116.38 83.43Q116.88 72.11 116.88 64.23L116.88 64.23L116.63 56.60Q116.38 53.16 116.38 48.97L116.38 48.97Q116.38 47.06 117.27 46.23Q118.16 45.41 120.06 45.41L120.06 45.41Q121.34 45.41 122.10 46.17L122.10 46.17Q122.35 46.30 125.79 46.68L125.79 46.68Q128.97 47.06 131.26 47.82L131.26 47.82Q133.67 48.59 133.67 49.73L133.67 49.73Q133.67 51.00 131.26 52.27L131.26 52.27Q124.01 49.86 120.95 49.86L120.95 49.86L120.32 50.62Q120.45 51.76 120.45 56.09L120.45 56.09Q120.45 61.56 120.19 65.88L120.19 65.88Q120.06 70.33 120.06 75.80L120.06 75.80Q120.06 79.36 121.84 79.36L121.84 79.36L123.88 79.24Q124.90 79.11 126.04 79.11L126.04 79.11Q131.00 79.11 131.00 81.40L131.00 81.40Q131.00 82.80 130.37 83.75Q129.73 84.71 128.46 84.71L128.46 84.71Q126.55 84.71 125.53 83.69L125.53 83.69L121.46 83.05L120.83 83.05L120.19 83.69L120.19 84.07Q120.45 86.23 120.45 94.12L120.45 94.12Q120.45 99.08 120.32 103.15L120.32 103.15L120.19 112.18Q120.19 117.14 120.57 122.35L120.57 122.35Q120.70 125.28 121.84 126.23Q122.99 127.19 126.04 127.19L126.04 127.19L128.33 127.06Q129.48 126.93 130.87 126.93L130.87 126.93Q134.56 126.93 134.56 128.59L134.56 128.59Q134.56 130.87 128.97 130.87L128.97 130.87ZM134.05 36.25L134.05 36.25Q133.04 36.25 132.27 35.36Q131.51 34.47 131.51 33.45L131.51 33.45Q131.51 32.31 132.46 31.29Q133.42 30.27 134.56 30.27L134.56 30.27Q135.71 30.27 136.53 31.29Q137.36 32.31 137.36 33.32L137.36 33.32Q137.36 36.25 134.05 36.25ZM117.14 36.76L117.14 36.76Q116.12 36.76 115.42 35.74Q114.72 34.72 114.72 33.58L114.72 33.58Q114.72 32.43 115.68 31.41Q116.63 30.40 117.77 30.40L117.77 30.40Q119.05 30.40 119.68 31.67Q120.32 32.94 120.32 34.59L120.32 34.59Q120.32 35.61 119.36 36.18Q118.41 36.76 117.14 36.76ZM202.23 130.62L202.23 130.62Q201.21 130.62 200.51 129.86Q199.81 129.09 199.81 127.95L199.81 127.95L199.68 124.01Q199.68 119.43 200.45 110.52L200.45 110.52Q201.08 100.60 201.08 97.17L201.08 97.17L200.95 91.45Q200.83 88.90 200.83 85.85L200.83 85.85Q200.83 80.76 201.21 70.72L201.21 70.72Q201.59 60.41 201.59 55.45L201.59 55.45L201.46 48.08L200.95 47.44L200.95 46.68Q200.95 43.37 203.62 43.37L203.62 43.37Q205.66 43.37 210.30 44.96Q214.94 46.55 214.94 47.57L214.94 47.57L214.94 47.95Q217.23 51.64 218.06 55.33Q218.89 59.01 218.89 64.74L218.89 64.74Q218.89 74.02 216.85 79.87L216.85 79.87L216.98 79.87Q216.47 80.89 214.94 83.18L214.94 83.18L213.16 85.85Q215.45 87.63 217.04 91.07Q218.63 94.50 219.01 97.68L219.01 97.68Q219.14 98.82 219.27 100.48Q219.40 102.13 219.52 104.42L219.52 104.42L219.65 107.73L219.65 109.51Q219.65 121.72 212.02 127.57L212.02 127.57Q208.08 130.62 202.23 130.62ZM205.15 83.31L206.17 83.31Q214.56 83.31 214.56 66.39L214.56 66.39Q214.56 64.99 214.31 60.92L214.31 60.92L214.18 58.51L213.93 58.25Q213.42 54.05 212.53 51.64L212.53 51.64Q211.89 49.86 210.49 48.78Q209.09 47.69 207.44 47.69L207.44 47.69Q204.64 47.69 204.64 64.36L204.64 64.36Q204.64 67.54 204.77 68.68L204.77 68.68L204.77 75.55Q204.64 77.58 204.64 80.13L204.64 80.13L204.64 81.65Q204.64 81.65 204.90 82.42L204.90 82.42L205.15 83.31ZM204.13 123.24L204.26 125.66Q207.31 125.66 209.92 123.62Q212.53 121.59 214.05 118.35Q215.58 115.10 215.58 111.92L215.58 111.92L215.71 111.41L215.71 109.00Q215.71 103.66 214.82 98.82L214.82 98.82Q213.42 92.34 209.86 89.41L209.86 89.41Q207.82 87.76 205.02 87.76L205.02 87.76Q204.39 98.31 204.39 105.06L204.39 105.06L204.39 107.98Q204.39 111.67 204.77 113.83L204.77 113.83Q204.13 114.98 204.13 119.94L204.13 119.94L204.13 123.24ZM287.19 47.06L287.19 47.06L287.19 46.55Q287.19 45.02 288.71 44.52L288.71 44.52L289.22 44.39Q290.11 44.39 290.94 45.02Q291.76 45.66 292.02 46.55L292.02 46.55Q292.15 47.19 292.15 48.08Q292.15 48.97 292.15 50.24L292.15 50.24Q292.40 58.00 292.53 63.47Q292.65 68.93 292.65 72.11L292.65 72.11Q292.78 73.77 292.72 76.12Q292.65 78.47 292.53 81.78L292.53 81.78Q292.40 84.32 292.34 86.23Q292.27 88.14 292.27 89.41L292.27 89.41Q292.27 92.72 292.40 97.74Q292.53 102.77 292.78 109.63L292.78 109.63Q292.78 111.29 292.85 113.83Q292.91 116.38 293.04 119.81L293.04 119.81L293.42 124.39Q294.31 124.39 294.94 124.52Q295.58 124.64 296.09 124.77L296.09 124.77Q297.36 125.02 298.51 125.09Q299.65 125.15 301.05 125.15L301.05 125.15Q302.32 125.15 303.66 125.15Q304.99 125.15 305.63 125.02L305.63 125.02Q305.76 124.52 305.88 123.88Q306.01 123.24 306.01 122.35L306.01 122.35L306.14 107.34L305.88 99.71Q305.76 97.04 305.63 93.16Q305.50 89.28 305.37 83.94L305.37 83.94L305.12 70.84Q305.12 64.74 304.93 58.76Q304.74 52.78 304.23 46.68L304.23 46.68L304.23 46.42Q304.23 44.01 306.65 43.62L306.65 43.62L306.90 43.62Q307.79 43.62 308.62 44.26Q309.44 44.90 309.57 45.79L309.57 45.79Q309.57 49.35 309.51 53.16Q309.44 56.98 309.32 61.05L309.32 61.05L309.06 82.29Q309.06 87.50 309.44 99.59L309.44 99.59Q309.70 105.69 309.83 110.02Q309.95 114.34 310.08 117.01L310.08 117.01Q310.21 118.79 310.27 120.13Q310.33 121.46 310.33 122.48L310.33 122.48Q310.33 124.39 310.21 124.90L310.21 124.90Q310.21 124.77 314.40 124.77L314.40 124.77Q318.73 124.77 319.75 125.02L319.75 125.02L320.64 125.02Q322.42 125.02 323.56 124.64L323.56 124.64Q323.82 120.45 323.94 117.20Q324.07 113.96 324.07 111.54L324.07 111.54Q324.07 98.44 323.69 85.47L323.69 85.47Q323.56 79.62 323.43 74.98Q323.31 70.33 323.18 66.90L323.18 66.90L323.05 62.58Q322.93 59.27 322.67 56.72Q322.42 54.18 322.29 52.40L322.29 52.40L321.91 47.31L321.91 46.80Q321.91 44.90 323.56 44.39L323.56 44.39Q323.82 44.26 324.58 44.26L324.58 44.26Q326.36 44.26 326.87 45.79Q327.38 47.31 327.38 48.71L327.38 48.71Q327.38 54.05 327.38 58.06Q327.38 62.07 327.25 64.74L327.25 64.74L327.38 70.84L327.38 83.18Q327.50 91.32 327.76 99.46Q328.01 107.60 328.39 115.74L328.39 115.74L328.65 121.97Q328.90 128.46 322.67 129.09L322.67 129.09L320.64 129.22Q318.22 129.22 317.58 129.09L317.58 129.09L314.40 128.97L292.78 128.71Q289.98 128.59 289.41 127.95Q288.84 127.31 288.84 124.52L288.84 124.52Q288.84 110.65 288.65 97.11Q288.46 83.56 288.20 69.70L288.20 69.70L288.08 64.74Q287.95 59.78 287.69 55.39Q287.44 51.00 287.19 47.06ZM374.56 131.64L374.56 131.64Q359.68 131.64 359.68 84.83L359.68 84.83L359.68 80.38Q359.68 44.90 368.84 44.90L368.84 44.90Q369.48 44.90 370.62 45.28L370.62 45.28Q374.69 46.68 378.63 47.06L378.63 47.06Q381.05 47.57 383.47 52.02L383.47 52.02Q386.14 56.60 387.47 64.10Q388.81 71.61 388.81 79.49L388.81 79.49L388.55 80.13Q388.55 84.32 388.68 87.63L388.68 87.63L388.81 95.26Q388.81 101.75 388.30 106.96L388.30 106.96Q387.54 114.85 385.76 120.57L385.76 120.57Q384.61 124.01 383.15 126.30Q381.69 128.59 379.52 130.11L379.52 130.11Q377.49 131.64 374.56 131.64ZM374.05 127.95L374.05 127.95Q379.01 127.95 381.43 120.95L381.43 120.95Q383.85 113.83 384.36 106.45L384.36 106.45Q384.86 98.82 384.86 94.24L384.86 94.24Q384.86 89.16 384.10 79.24L384.10 79.24Q383.47 68.17 383.47 64.23L383.47 64.23L382.96 63.21L383.21 62.58Q383.21 56.98 380.10 52.91Q376.98 48.84 372.53 48.84L372.53 48.84Q366.68 48.84 365.53 54.44L365.53 54.44Q365.28 56.34 365.02 59.90L365.02 59.90Q365.02 69.32 364.26 72.75L364.26 72.75Q364.26 74.66 363.88 78.73L363.88 78.73L363.62 84.71Q363.62 87.50 363.75 89.67L363.75 89.67L363.88 94.75Q363.88 100.73 364.90 108.49L364.90 108.49Q365.66 114.21 366.68 118.16Q367.69 122.10 369.60 124.90L369.60 124.90Q371.51 127.95 374.05 127.95ZM436.88 130.11L436.88 130.11Q434.21 129.35 432.75 127.50Q431.29 125.66 430.52 122.73L430.52 122.73Q429.63 119.17 429.44 115.55Q429.25 111.92 429.25 106.45L429.25 106.45Q429.25 102.38 429.13 100.35L429.13 100.35Q429.13 97.04 428.36 93.61L428.36 93.61Q428.11 91.83 427.15 91.07Q426.20 90.30 423.66 90.05L423.66 90.05L423.53 93.86Q423.28 98.95 423.28 101.37L423.28 101.37Q423.28 104.29 423.53 109.89L423.53 109.89L423.66 114.09L424.67 126.80Q424.67 128.20 423.53 128.71L423.53 128.71Q422.77 129.09 422.13 129.09L422.13 129.09Q421.11 129.09 420.48 128.52Q419.84 127.95 419.71 126.80L419.71 126.80Q419.59 125.41 419.78 123.62Q419.97 121.84 419.97 121.21L419.97 121.21L420.10 116.12Q420.35 109.25 420.35 106.07L420.35 106.07L420.22 98.19Q419.97 87.76 419.97 82.54L419.97 82.54L419.97 78.73Q419.97 72.75 420.48 62.32L420.48 62.32L420.73 55.20L420.60 49.86Q420.60 47.06 421.24 46.42L421.24 46.42Q421.62 46.04 422.13 46.04L422.13 46.04Q422.77 46.04 423.47 46.42Q424.17 46.80 424.55 47.31L424.55 47.31Q425.06 47.95 425.06 49.22L425.06 49.22L424.93 50.75L424.42 66.01Q423.78 80.38 423.78 83.94L423.78 83.94Q425.31 84.32 426.14 83.69Q426.96 83.05 427.73 81.65L427.73 81.65Q430.65 76.06 431.29 68.04L431.29 68.04L432.69 52.02Q432.94 49.35 435.04 47.19Q437.14 45.02 439.81 44.52L439.81 44.52Q440.19 44.39 440.95 44.39L440.95 44.39Q442.61 44.39 443.62 45.41L443.62 45.41Q445.28 46.80 444.52 47.95L444.52 47.95Q444.26 48.46 443.37 49.22Q442.48 49.98 442.10 49.98L442.10 49.98Q438.54 50.49 437.46 51.57Q436.38 52.66 435.99 56.34L435.99 56.34Q435.61 59.52 435.10 66.77L435.10 66.77Q434.72 73.39 432.81 79.62L432.81 79.62Q432.43 81.02 431.99 82.35Q431.54 83.69 430.65 84.58L430.65 84.58Q428.74 86.49 425.95 86.74L425.95 86.74Q426.07 87.00 427.41 87.57Q428.74 88.14 429.00 88.27L429.00 88.27Q430.91 89.54 431.48 91.07Q432.05 92.59 432.43 95.64L432.43 95.64Q432.81 97.93 432.81 100.73Q432.81 103.53 432.81 104.17L432.81 104.17Q432.94 110.14 433.83 117.52L433.83 117.52Q433.83 118.41 434.09 120.45L434.09 120.45Q434.98 125.79 439.55 125.66L439.55 125.66L440.70 125.66Q442.23 125.66 442.73 126.42L442.73 126.42Q442.99 126.93 442.99 127.31L442.99 127.31Q442.99 128.33 442.23 129.35L442.23 129.35Q441.08 130.49 439.17 130.49L439.17 130.49Q437.90 130.49 436.88 130.11ZM484.83 131.64L484.83 131.64Q469.95 131.64 469.95 84.83L469.95 84.83L469.95 80.38Q469.95 44.90 479.11 44.90L479.11 44.90Q479.75 44.90 480.89 45.28L480.89 45.28Q484.96 46.68 488.90 47.06L488.90 47.06Q491.32 47.57 493.74 52.02L493.74 52.02Q496.41 56.60 497.74 64.10Q499.08 71.61 499.08 79.49L499.08 79.49L498.82 80.13Q498.82 84.32 498.95 87.63L498.95 87.63L499.08 95.26Q499.08 101.75 498.57 106.96L498.57 106.96Q497.81 114.85 496.03 120.57L496.03 120.57Q494.88 124.01 493.42 126.30Q491.96 128.59 489.79 130.11L489.79 130.11Q487.76 131.64 484.83 131.64ZM484.32 127.95L484.32 127.95Q489.28 127.95 491.70 120.95L491.70 120.95Q494.12 113.83 494.63 106.45L494.63 106.45Q495.14 98.82 495.14 94.24L495.14 94.24Q495.14 89.16 494.37 79.24L494.37 79.24Q493.74 68.17 493.74 64.23L493.74 64.23L493.23 63.21L493.48 62.58Q493.48 56.98 490.37 52.91Q487.25 48.84 482.80 48.84L482.80 48.84Q476.95 48.84 475.80 54.44L475.80 54.44Q475.55 56.34 475.29 59.90L475.29 59.90Q475.29 69.32 474.53 72.75L474.53 72.75Q474.53 74.66 474.15 78.73L474.15 78.73L473.90 84.71Q473.90 87.50 474.02 89.67L474.02 89.67L474.15 94.75Q474.15 100.73 475.17 108.49L475.17 108.49Q475.93 114.21 476.95 118.16Q477.96 122.10 479.87 124.90L479.87 124.90Q481.78 127.95 484.32 127.95ZM529.60 128.46L529.60 128.46Q528.08 129.35 527.06 129.35L527.06 129.35Q525.53 129.35 525.15 127.82L525.15 127.82L525.15 127.44Q525.15 126.55 526.17 125.85Q527.19 125.15 527.57 124.90L527.57 124.90Q529.98 122.86 531.32 119.94Q532.65 117.01 534.05 112.05L534.05 112.05Q536.60 102.26 536.60 89.67L536.60 89.67Q536.60 86.49 536.34 80.13L536.34 80.13Q535.96 72.24 535.71 61.94Q535.45 51.64 535.58 48.84L535.58 48.84Q535.45 48.84 535.20 48.90Q534.94 48.97 534.56 48.97L534.56 48.97Q531.76 48.97 531.76 47.69L531.76 47.69Q531.76 46.30 533.80 45.53L533.80 45.53Q535.71 44.77 538.12 44.83Q540.54 44.90 541.30 44.90L541.30 44.90L547.41 44.90Q551.73 44.90 552.24 44.77L552.24 44.77Q555.42 44.52 556.82 45.41Q558.22 46.30 558.22 48.84L558.22 48.84Q558.22 49.98 558.09 50.62L558.09 50.62Q557.58 54.31 557.58 59.14L557.58 59.14L557.71 68.17Q557.71 75.93 557.58 79.75L557.58 79.75L557.46 91.45L557.46 95.26Q557.46 102.64 558.22 117.65L558.22 117.65Q558.22 119.55 558.47 121.91Q558.73 124.26 558.86 125.28L558.86 125.28L558.86 125.79Q558.86 127.06 558.41 127.57Q557.96 128.08 556.69 128.20L556.69 128.20L556.44 128.20Q555.29 128.20 554.59 127.57Q553.90 126.93 553.90 125.66L553.90 125.66L554.02 117.65Q554.15 112.94 554.15 103.53L554.15 103.53L553.77 70.08L553.90 62.19Q553.90 57.11 553.51 52.40L553.51 52.40Q553.51 51.64 552.75 49.35L552.75 49.35L538.89 49.35L539.78 66.77Q540.29 84.83 540.29 93.86L540.29 93.86Q540.03 107.60 536.34 119.17L536.34 119.17Q534.18 125.66 529.60 128.46ZM617.36 130.37L617.36 130.37Q615.45 130.37 614.94 129.92Q614.44 129.48 614.18 127.57L614.18 127.57Q613.04 118.28 612.78 115.99L612.78 115.99L612.15 110.91Q609.35 110.27 605.79 110.27L605.79 110.27L601.21 110.02Q598.16 109.63 596.76 109.63L596.76 109.63Q595.99 109.63 595.87 110.27L595.87 110.27Q595.87 110.65 595.74 110.65L595.74 110.65L595.48 113.20Q595.36 115.48 594.09 122.35L594.09 122.35Q593.45 125.79 592.56 127.69L592.56 127.69Q591.54 129.86 590.65 129.86L590.65 129.86Q589.89 129.86 589.00 129.16Q588.11 128.46 588.11 127.69L588.11 127.69L588.36 126.93Q590.65 117.90 592.18 109.00L592.18 109.00L593.70 101.11L595.23 91.45Q595.23 91.45 596.63 83.05L596.63 83.05Q597.27 79.62 598.92 71.99L598.92 71.99Q600.70 63.34 601.08 60.16L601.08 60.16Q601.21 59.78 601.59 55.45L601.59 55.45Q602.10 50.62 602.48 48.33L602.48 48.33Q602.86 45.02 603.24 44.52L603.24 44.52L604.13 44.52Q604.52 44.64 605.02 44.64L605.02 44.64Q606.55 44.64 607.31 43.88L607.31 43.88Q608.20 43.88 608.90 44.45Q609.60 45.02 609.60 45.79L609.60 45.79Q609.60 51.89 610.49 59.78L610.49 59.78Q611.00 63.85 611.26 66.52L611.26 66.52Q612.65 82.93 618.38 128.08L618.38 128.08L618.38 128.46Q618.38 129.73 617.36 130.37ZM610.24 107.47L611.51 107.47Q610.24 89.16 606.68 53.42L606.68 53.42L599.81 87.38Q596.88 102.00 596.88 105.82L596.88 105.82Q596.88 106.45 601.72 106.96Q606.55 107.47 610.24 107.47L610.24 107.47ZM679.05 140.54L679.05 140.54Q677.14 140.16 677.52 138.12L677.52 138.12L678.16 134.82Q678.79 132.02 678.79 129.73L678.79 129.73Q674.47 129.35 670.14 129.35L670.14 129.35Q664.67 129.35 658.38 129.92Q652.08 130.49 646.10 131.13L646.10 131.13Q645.09 132.15 645.09 133.80L645.09 133.80Q645.09 133.93 645.47 136.22L645.47 136.22Q645.72 137.23 645.72 137.62L645.72 137.62Q645.72 138.76 644.32 139.14L644.32 139.14L643.82 139.27Q642.80 139.27 641.91 138.63Q641.02 138.00 640.89 137.11L640.89 137.11Q640.38 131.76 640.38 129.09L640.38 129.09Q640.38 127.95 641.34 127.38Q642.29 126.80 643.31 126.93L643.31 126.93Q645.98 127.06 647.12 125.66Q648.27 124.26 649.16 121.59L649.16 121.59Q651.70 112.18 652.34 107.34L652.34 107.34Q653.61 96.03 653.99 89.73Q654.37 83.43 654.50 75.04L654.50 75.04Q654.50 72.88 654.63 67.66Q654.75 62.45 655.01 56.72L655.01 56.72Q655.14 55.45 654.88 52.91L654.88 52.91Q654.63 50.87 654.63 49.86L654.63 49.86Q654.50 47.82 655.33 47.06Q656.15 46.30 658.19 46.30L658.19 46.30L672.56 45.91Q674.09 45.91 675.04 46.80Q675.99 47.69 675.87 49.22L675.87 49.22L674.72 75.04Q673.96 87.25 673.96 93.61L673.96 93.61Q673.96 100.22 674.47 108.74L674.47 108.74Q674.47 116.12 674.85 125.66L674.85 125.66Q679.30 124.64 681.59 124.64L681.59 124.64Q683.12 124.64 684.07 125.41Q685.02 126.17 685.02 127.31L685.02 127.31Q685.02 128.20 684.52 128.84L684.52 128.84Q682.61 131.64 682.29 135.01Q681.97 138.38 681.84 139.01L681.84 139.01Q681.34 141.05 679.05 140.54ZM652.46 126.17L652.46 126.17Q663.78 125.66 669.76 125.28L669.76 125.28Q670.27 102.00 670.65 89.28L670.65 89.28L671.03 76.95Q671.29 68.55 671.29 64.61L671.29 64.61Q671.29 58.63 671.16 54.44L671.16 54.44Q671.16 52.66 670.65 52.02Q670.14 51.38 668.62 51.26L668.62 51.26Q667.22 51.13 664.29 51.13L664.29 51.13L659.84 51.13Q659.08 61.81 658.19 82.29L658.19 82.29Q657.30 102.13 656.92 105.44L656.92 105.44Q656.03 113.20 655.20 117.14Q654.37 121.08 652.46 126.17ZM723.18 130.87L712.75 130.87Q710.46 130.87 710.21 128.20L710.21 128.20L710.21 126.55Q710.33 125.91 710.33 125.02L710.33 125.02L709.83 124.52Q710.84 121.84 710.84 119.30L710.84 119.30Q710.84 116.38 710.46 110.91L710.46 110.91L710.21 102.51Q710.21 96.15 710.59 83.43L710.59 83.43Q711.10 72.11 711.10 64.23L711.10 64.23L710.84 56.60Q710.59 53.16 710.59 48.97L710.59 48.97Q710.59 47.06 711.48 46.23Q712.37 45.41 714.28 45.41L714.28 45.41Q715.55 45.41 716.31 46.17L716.31 46.17Q716.57 46.30 720.00 46.68L720.00 46.68Q723.18 47.06 725.47 47.82L725.47 47.82Q727.89 48.59 727.89 49.73L727.89 49.73Q727.89 51.00 725.47 52.27L725.47 52.27Q718.22 49.86 715.17 49.86L715.17 49.86L714.53 50.62Q714.66 51.76 714.66 56.09L714.66 56.09Q714.66 61.56 714.40 65.88L714.40 65.88Q714.28 70.33 714.28 75.80L714.28 75.80Q714.28 79.36 716.06 79.36L716.06 79.36L718.09 79.24Q719.11 79.11 720.25 79.11L720.25 79.11Q725.21 79.11 725.21 81.40L725.21 81.40Q725.21 82.80 724.58 83.75Q723.94 84.71 722.67 84.71L722.67 84.71Q720.76 84.71 719.75 83.69L719.75 83.69L715.68 83.05L715.04 83.05L714.40 83.69L714.40 84.07Q714.66 86.23 714.66 94.12L714.66 94.12Q714.66 99.08 714.53 103.15L714.53 103.15L714.40 112.18Q714.40 117.14 714.79 122.35L714.79 122.35Q714.91 125.28 716.06 126.23Q717.20 127.19 720.25 127.19L720.25 127.19L722.54 127.06Q723.69 126.93 725.09 126.93L725.09 126.93Q728.78 126.93 728.78 128.59L728.78 128.59Q728.78 130.87 723.18 130.87L723.18 130.87Z"></path>
              </g>
    </g>
    <g id="tagline_group" transform="rotate(0)" opacity="1">
      <g id="text_layer_2_0" fill="rgba(0, 0, 0, 1)" transform="translate(327.37, 633.3401086)">
                  <path d="M2.79 30.66Q2.37 30.66 2.15 30.41Q1.92 30.15 1.98 29.76L1.98 29.76L3.09 25.80Q3.12 25.68 3.12 25.47L3.12 25.47Q3.12 25.26 3.09 25.17L3.09 25.17L2.91 24.39Q2.82 24 2.63 23.12Q2.43 22.23 2.31 21.54L2.31 21.54Q2.10 20.61 1.65 17.63Q1.20 14.64 0.87 12.27L0.87 12.27L0.72 11.34Q0.39 9.48 0.39 8.76L0.39 8.76Q0.39 8.16 0.54 7.98L0.54 7.98Q0.69 7.83 0.99 7.83L0.99 7.83Q1.23 7.83 1.48 7.91Q1.74 7.98 1.89 8.10L1.89 8.10Q2.07 8.28 2.07 8.70L2.07 8.70L2.04 9.30Q2.04 9.45 2.40 11.49L2.40 11.49L2.70 13.44Q2.67 14.31 2.77 15.21Q2.88 16.11 3.12 17.37L3.12 17.37Q3.18 17.61 3.24 17.97L3.24 17.97Q3.42 19.02 3.60 21L3.60 21Q3.63 21.36 3.69 21.84Q3.75 22.32 3.78 22.56L3.78 22.56Q4.08 21.03 4.29 18.87L4.29 18.87Q4.29 18.63 4.35 18.21L4.35 18.21Q4.53 16.44 4.77 13.11L4.77 13.11Q4.83 12.60 4.89 11.28L4.89 11.28L4.95 10.20Q5.01 9.78 5.01 9.39L5.01 9.39Q5.01 9.30 5.02 8.96Q5.04 8.61 5.10 8.37Q5.16 8.13 5.28 7.98L5.28 7.98Q5.46 7.71 5.91 7.71L5.91 7.71Q6.45 7.71 6.81 8.01L6.81 8.01Q7.02 8.19 7.02 8.61L7.02 8.61Q7.02 8.88 6.99 9.11Q6.96 9.33 6.93 9.51L6.93 9.51Q6.75 11.07 6.54 13.26L6.54 13.26L6.18 16.59Q6.09 17.28 5.91 18.78L5.91 18.78Q5.46 22.92 5.10 24.78L5.10 24.78Q4.98 25.56 4.50 27.54Q4.02 29.52 3.90 29.82L3.90 29.82Q3.81 30.18 3.51 30.42Q3.21 30.66 2.79 30.66L2.79 30.66ZM30.33 30.54Q30.21 30.51 29.94 30.48Q29.67 30.45 29.49 30.33L29.49 30.33Q29.04 30.03 29.13 29.31L29.13 29.31L29.16 28.65Q29.28 27.03 29.28 26.22L29.28 26.22Q29.28 21.51 29.19 16.74L29.19 16.74Q29.19 14.28 29.04 11.52L29.04 11.52Q29.01 11.04 29.27 10.71Q29.52 10.38 29.91 10.38L29.91 10.38Q30.27 10.38 30.65 10.71Q31.02 11.04 30.99 11.49L30.99 11.49Q30.78 12.39 30.78 15.09L30.78 15.09L30.78 17.49Q30.78 18.15 30.84 19.59L30.84 19.59Q30.93 19.47 31.41 18.48L31.41 18.48Q31.47 18.36 31.62 18.11Q31.77 17.85 31.83 17.58L31.83 17.58Q32.82 14.58 33.45 12.96L33.45 12.96Q33.72 12.09 34.17 11.48Q34.62 10.86 35.40 10.62L35.40 10.62Q35.67 10.53 36.14 10.68Q36.60 10.83 36.75 11.04L36.75 11.04Q36.93 11.25 36.93 11.55L36.93 11.55Q36.93 11.85 36.73 12.09Q36.54 12.33 36.24 12.39L36.24 12.39Q35.49 12.51 35.07 12.93Q34.65 13.35 34.46 13.82Q34.26 14.28 33.99 15.21L33.99 15.21L32.79 18.15Q32.70 18.36 32.54 18.87Q32.37 19.38 32.22 19.65L32.22 19.65Q32.16 19.74 32.04 19.83Q31.92 19.92 31.83 20.01L31.83 20.01Q32.04 19.86 32.39 20.10Q32.73 20.34 33.09 20.76L33.09 20.76Q33.33 21.24 33.44 21.81Q33.54 22.38 33.57 22.47L33.57 22.47Q33.63 22.95 33.69 23.19L33.69 23.19Q34.05 24.15 34.20 24.95Q34.35 25.74 34.41 26.82L34.41 26.82Q34.50 27.90 35.01 28.71L35.01 28.71Q35.16 28.74 35.36 28.77Q35.55 28.80 35.79 28.83L35.79 28.83Q36.27 28.86 36.42 29.43L36.42 29.43Q36.45 29.49 36.45 29.64L36.45 29.64Q36.45 29.97 36.15 30.27L36.15 30.27Q35.70 30.72 35.01 30.72L35.01 30.72Q34.50 30.72 34.04 30.45Q33.57 30.18 33.36 29.73L33.36 29.73Q33.18 29.43 33.06 28.92L33.06 28.92Q32.85 27.63 32.70 26.31L32.70 26.31Q32.58 24.48 32.45 23.54Q32.31 22.59 31.86 21.72L31.86 21.72Q31.74 21.51 31.62 21.41Q31.50 21.30 31.29 21.30L31.29 21.30Q31.11 21.30 30.84 21.39L30.84 21.39Q30.78 23.55 30.78 25.59L30.78 25.59Q30.78 26.88 30.90 29.52L30.90 29.52Q30.93 29.85 30.80 30.05Q30.66 30.24 30.33 30.54L30.33 30.54ZM52.35 30.75Q51.66 30.75 51.33 30.54Q51.00 30.33 51.00 29.76L51.00 29.76Q51.00 28.86 50.70 26.70L50.70 26.70L50.58 26.07L47.61 25.62Q47.43 26.31 47.10 28.41L47.10 28.41Q46.92 29.88 46.53 30.36L46.53 30.36Q46.32 30.63 45.93 30.63L45.93 30.63Q45.57 30.63 45.27 30.41Q44.97 30.18 44.97 29.85L44.97 29.85L45.03 29.70L45.06 29.58Q47.04 21.87 48.06 14.37L48.06 14.37Q48.06 14.25 48.09 13.96Q48.12 13.68 48.15 13.14L48.15 13.14Q48.24 12.03 48.35 11.37Q48.45 10.71 48.69 10.38L48.69 10.38L49.71 10.38Q50.13 10.38 50.43 10.58Q50.73 10.77 50.73 11.13L50.73 11.13Q50.73 13.41 51.36 17.91L51.36 17.91Q51.96 22.53 51.96 24.39L51.96 24.39Q51.96 24.57 52.11 25.32L52.11 25.32Q52.26 26.01 52.26 26.22L52.26 26.22Q52.26 26.43 52.56 28.02L52.56 28.02Q52.83 29.46 52.83 29.88L52.83 29.88L52.83 29.91Q52.83 30.57 52.35 30.75L52.35 30.75ZM50.37 24.99Q50.28 24.54 50.28 23.88L50.28 23.88Q50.28 21.18 49.80 16.98L49.80 16.98L49.50 13.86Q48.21 20.91 47.73 24.51L47.73 24.51Q48.18 24.81 50.37 24.99L50.37 24.99ZM63.03 30.93Q61.80 30.93 61.41 29.73L61.41 29.73Q61.26 29.34 61.26 28.80L61.26 28.80Q61.26 28.38 61.35 27.84Q61.44 27.30 61.47 27.12L61.47 27.12Q61.50 26.88 61.70 26.73Q61.89 26.58 62.16 26.55L62.16 26.55Q62.43 26.55 62.67 26.73Q62.91 26.91 63.00 27.15L63.00 27.15Q63.06 27.45 63.06 28.71L63.06 28.71Q63.21 28.80 63.36 28.77L63.36 28.77Q63.45 28.53 63.59 28.19Q63.72 27.84 63.78 27.60L63.78 27.60Q64.38 24.84 64.62 23.43L64.62 23.43Q64.80 22.50 65.18 21.81Q65.55 21.12 66.30 20.58L66.30 20.58Q65.79 19.92 65.52 18.77Q65.25 17.61 65.25 16.47L65.25 16.47L65.25 14.94Q65.25 13.89 65.22 13.38L65.22 13.38Q65.22 13.02 65.00 12.45Q64.77 11.88 64.56 11.88L64.56 11.88Q64.29 11.94 64.05 12.21L64.05 12.21Q63.90 12.57 63.87 13.10Q63.84 13.62 63.84 13.74L63.84 13.74Q63.75 14.58 62.94 14.49L62.94 14.49Q62.64 14.46 62.40 14.18Q62.16 13.89 62.16 13.53L62.16 13.53Q62.16 12.90 62.55 12.21Q62.94 11.52 63.50 11.07Q64.05 10.62 64.56 10.62L64.56 10.62Q64.95 10.62 65.39 10.88Q65.82 11.13 66.12 11.52L66.12 11.52Q66.69 12.33 66.69 14.10L66.69 14.10Q66.69 14.61 66.63 15.63L66.63 15.63L66.60 16.23Q66.60 17.31 66.77 18.44Q66.93 19.56 67.32 20.16L67.32 20.16Q67.35 20.19 67.48 20.19Q67.62 20.19 67.71 20.22L67.71 20.22L67.71 20.07Q67.71 17.73 67.65 14.13L67.65 14.13Q67.65 13.77 67.71 13.05L67.71 13.05L67.74 12.03Q67.74 11.58 67.71 11.34L67.71 11.34Q67.68 11.25 67.68 11.10L67.68 11.10Q67.68 10.41 68.43 10.26L68.43 10.26Q68.67 10.20 69.02 10.46Q69.36 10.71 69.48 11.07L69.48 11.07Q69.57 11.34 69.57 11.67L69.57 11.67Q69.57 11.88 69.54 11.97L69.54 11.97Q69.12 14.01 69.12 15.81L69.12 15.81L69.12 20.37Q69.54 20.52 69.84 20.58L69.84 20.58Q70.50 20.67 70.62 19.74L70.62 19.74Q70.71 19.35 70.83 18.24L70.83 18.24Q70.86 18.06 70.86 17.91Q70.86 17.76 70.89 17.61L70.89 17.61L71.04 16.35Q71.13 15.30 71.31 14.28L71.31 14.28Q71.67 12.45 72.78 11.28L72.78 11.28Q73.23 10.83 73.86 10.83L73.86 10.83Q74.34 10.83 74.78 11.09Q75.21 11.34 75.42 11.79L75.42 11.79Q75.69 12.39 75.80 13.01Q75.90 13.62 75.96 14.58L75.96 14.58Q75.99 14.94 75.78 15.08Q75.57 15.21 75.09 15.39L75.09 15.39Q74.67 15.27 74.45 14.94Q74.22 14.61 74.28 14.10L74.28 14.10Q74.37 13.26 73.77 12.51L73.77 12.51Q73.29 12.93 73.05 13.43Q72.81 13.92 72.69 14.73L72.69 14.73Q72.57 15.54 72.48 15.84L72.48 15.84Q72.24 16.98 72.24 17.58L72.24 17.58Q72.24 18.18 72.06 19.08Q71.88 19.98 71.64 20.55L71.64 20.55Q71.55 20.73 71.55 20.88L71.55 20.88Q71.55 21.15 71.79 21.39L71.79 21.39Q72.21 21.84 72.42 22.86L72.42 22.86Q72.51 23.34 72.51 24.06L72.51 24.06L72.48 25.23Q72.42 26.13 72.42 26.58L72.42 26.58Q72.42 27.12 72.65 27.59Q72.87 28.05 73.32 28.71L73.32 28.71Q73.44 28.89 73.68 28.89L73.68 28.89Q74.01 28.89 74.25 28.56L74.25 28.56Q74.58 27.81 74.67 27.30Q74.76 26.79 74.79 26.64L74.79 26.64Q74.88 25.89 75.51 25.89L75.51 25.89Q75.72 25.89 75.84 25.92L75.84 25.92L76.23 26.07Q76.35 26.52 76.35 27.06L76.35 27.06Q76.35 28.41 75.36 29.85L75.36 29.85Q75.12 30.21 74.69 30.42Q74.25 30.63 73.71 30.63L73.71 30.63Q73.14 30.63 72.72 30.38Q72.30 30.12 72.06 29.70L72.06 29.70Q71.67 28.92 71.46 28.26Q71.25 27.60 71.25 26.88L71.25 26.88Q71.25 25.98 71.19 24.90Q71.13 23.82 71.10 23.40L71.10 23.40L71.04 22.59Q71.04 22.11 70.70 21.91Q70.35 21.72 69.87 21.62Q69.39 21.51 69.12 21.45L69.12 21.45Q69.06 22.47 69.06 22.95L69.06 22.95Q69.06 23.52 69 24.60L69 24.60Q68.94 26.22 68.97 27L68.97 27Q69 27.39 69.09 27.87Q69.18 28.35 69.21 28.53L69.21 28.53Q69.33 28.95 69.36 29.16L69.36 29.16Q69.42 29.40 69.42 29.55L69.42 29.55Q69.42 29.97 69.18 30.23Q68.94 30.48 68.46 30.51L68.46 30.51Q68.07 30.54 67.95 30.34Q67.83 30.15 67.80 29.70L67.80 29.70L67.83 28.29Q67.83 27.39 67.77 25.53L67.77 25.53Q67.71 24.33 67.71 23.70L67.71 23.70L67.71 21.27Q67.38 21.24 67.19 21.42Q66.99 21.60 66.81 21.90L66.81 21.90Q66.36 22.59 66.15 23.37Q65.94 24.15 65.73 25.38L65.73 25.38L65.61 26.07Q65.25 28.23 64.59 29.79L64.59 29.79Q64.38 30.33 63.96 30.63Q63.54 30.93 63.03 30.93L63.03 30.93ZM97.23 34.17Q96.99 34.23 96.87 34.23L96.87 34.23Q96.51 34.23 96.36 33.78L96.36 33.78Q96.24 33.42 96.24 32.88L96.24 32.88L96.27 30.81Q96.27 30.63 96.24 30.48Q96.21 30.33 96.18 30.18L96.18 30.18L92.73 30.18Q93.03 30.18 91.31 30.46Q89.58 30.75 88.62 30.84L88.62 30.84L87.27 30.96L85.77 31.11Q85.77 31.38 85.79 31.77Q85.80 32.16 85.77 32.70L85.77 32.70L85.77 32.85Q85.77 33.33 85.53 33.57L85.53 33.57Q85.29 33.81 85.08 33.81L85.08 33.81Q84.96 33.81 84.72 33.69L84.72 33.69Q84.18 33.30 84.12 32.61L84.12 32.61L84.03 30.42Q83.97 29.25 84.99 29.25L84.99 29.25Q85.56 29.22 85.89 28.95Q86.22 28.68 86.67 28.11L86.67 28.11Q87.12 27.51 87.38 26.77Q87.63 26.04 87.87 24.99L87.87 24.99Q88.14 23.85 88.26 22.77Q88.38 21.69 88.56 19.68L88.56 19.68Q88.83 16.53 88.83 13.35L88.83 13.35L88.80 11.67Q88.80 11.10 89.13 10.73Q89.46 10.35 90.03 10.35L90.03 10.35Q90.21 10.35 90.30 10.38L90.30 10.38Q91.68 10.62 92.55 10.68L92.55 10.68L92.70 10.68Q93.09 10.68 93.15 10.53L93.15 10.53Q93.42 10.17 93.81 10.17L93.81 10.17Q94.08 10.17 94.29 10.29L94.29 10.29Q94.77 10.47 94.92 11.19L94.92 11.19L94.77 16.32Q94.77 20.49 94.80 22.56L94.80 22.56Q94.80 23.64 94.86 25.86L94.86 25.86L94.89 27.51Q94.89 27.75 94.92 27.96Q94.95 28.17 94.98 28.38L94.98 28.38Q95.58 28.44 95.88 28.44L95.88 28.44Q96.12 28.44 96.24 28.41L96.24 28.41Q96.90 28.32 97.43 28.73Q97.95 29.13 97.95 29.76L97.95 29.76Q97.95 30.57 97.83 32.19L97.83 32.19Q97.83 32.61 97.77 33.39L97.77 33.39Q97.71 34.02 97.23 34.17L97.23 34.17ZM87.90 29.46L88.59 29.40Q90.27 29.25 91.25 29.12Q92.22 28.98 93.18 28.68L93.18 28.68Q93.48 25.05 93.48 20.91L93.48 20.91Q93.48 17.07 93.18 12.48L93.18 12.48Q92.40 12.45 90.27 12.33L90.27 12.33L90.24 13.74Q90.00 18.36 89.91 20.64L89.91 20.64Q89.79 24.06 88.74 27.36L88.74 27.36Q88.68 27.54 88.49 28.25Q88.29 28.95 87.90 29.46L87.90 29.46ZM109.92 31.05Q109.14 31.05 108.48 30.55Q107.82 30.06 107.40 29.22L107.40 29.22Q106.53 27.39 106.32 25.23L106.32 25.23Q106.05 23.19 106.05 21.30L106.05 21.30Q106.05 20.94 106.08 20.70L106.08 20.70L106.08 20.16Q106.08 20.01 106.05 20.01L106.05 20.01L106.05 19.47L106.08 17.37Q106.11 16.41 106.32 14.31L106.32 14.31Q106.47 12.87 107.01 11.52L107.01 11.52Q107.22 10.92 107.55 10.61Q107.88 10.29 108.30 10.29L108.30 10.29Q109.50 10.29 110.46 10.73Q111.42 11.16 112.08 11.94L112.08 11.94Q112.68 12.69 113.10 13.79Q113.52 14.88 113.70 16.11L113.70 16.11Q113.88 17.37 113.88 18.78L113.88 18.78L113.88 19.02Q113.88 19.95 113.91 20.70L113.91 20.70L113.94 22.41Q113.94 31.05 109.92 31.05L109.92 31.05ZM109.80 29.79Q110.34 29.79 110.79 29.36Q111.24 28.92 111.48 28.17L111.48 28.17Q112.05 26.64 112.17 24.87L112.17 24.87Q112.32 23.34 112.32 22.23L112.32 22.23Q112.32 20.88 112.11 18.69L112.11 18.69Q111.93 16.38 111.93 15.24L111.93 15.24L111.93 14.70Q111.87 13.56 111.17 12.72Q110.46 11.88 109.44 11.88L109.44 11.88Q108.42 11.88 108.09 13.05L108.09 13.05Q107.79 13.98 107.79 15.45L107.79 15.45Q107.79 16.02 107.82 16.41L107.82 16.41L107.82 17.22L107.76 18.60Q107.70 19.23 107.70 19.98L107.70 19.98Q107.70 21.60 107.79 23.19L107.79 23.19Q107.91 25.44 108.39 27.57L108.39 27.57Q108.87 29.79 109.80 29.79L109.80 29.79ZM124.41 30.72Q124.38 30.60 124.31 30.30Q124.23 30 124.26 29.79L124.26 29.79Q124.32 26.31 124.44 24.60L124.44 24.60Q124.47 23.97 124.47 22.74L124.47 22.74Q124.47 20.52 124.26 17.37L124.26 17.37Q124.08 13.53 124.08 11.55L124.08 11.55Q124.08 11.10 124.44 10.74Q124.80 10.38 125.31 10.38L125.31 10.38Q127.02 10.38 128.28 10.65L128.28 10.65Q128.88 10.77 129.06 11.05Q129.24 11.34 129.18 12L129.18 12Q128.76 12.27 128.31 12.27L128.31 12.27Q128.16 12.27 127.86 12.21L127.86 12.21Q127.59 12.15 126.42 12.09L126.42 12.09L126.36 12.09Q125.94 12.09 125.94 12.54L125.94 12.54Q125.79 16.89 125.79 17.49L125.79 17.49Q125.85 20.61 125.91 22.20L125.91 22.20Q125.91 22.41 125.94 22.71Q125.97 23.01 125.94 23.22L125.94 23.22Q125.85 24.60 125.85 26.13L125.85 26.13Q125.85 28.62 125.94 29.61L125.94 29.61Q125.91 30.27 125.73 30.53Q125.55 30.78 125.07 30.78L125.07 30.78Q124.95 30.78 124.41 30.72L124.41 30.72ZM141.66 31.05Q140.88 31.05 140.22 30.55Q139.56 30.06 139.14 29.22L139.14 29.22Q138.27 27.39 138.06 25.23L138.06 25.23Q137.79 23.19 137.79 21.30L137.79 21.30Q137.79 20.94 137.82 20.70L137.82 20.70L137.82 20.16Q137.82 20.01 137.79 20.01L137.79 20.01L137.79 19.47L137.82 17.37Q137.85 16.41 138.06 14.31L138.06 14.31Q138.21 12.87 138.75 11.52L138.75 11.52Q138.96 10.92 139.29 10.61Q139.62 10.29 140.04 10.29L140.04 10.29Q141.24 10.29 142.20 10.73Q143.16 11.16 143.82 11.94L143.82 11.94Q144.42 12.69 144.84 13.79Q145.26 14.88 145.44 16.11L145.44 16.11Q145.62 17.37 145.62 18.78L145.62 18.78L145.62 19.02Q145.62 19.95 145.65 20.70L145.65 20.70L145.68 22.41Q145.68 31.05 141.66 31.05L141.66 31.05ZM141.54 29.79Q142.08 29.79 142.53 29.36Q142.98 28.92 143.22 28.17L143.22 28.17Q143.79 26.64 143.91 24.87L143.91 24.87Q144.06 23.34 144.06 22.23L144.06 22.23Q144.06 20.88 143.85 18.69L143.85 18.69Q143.67 16.38 143.67 15.24L143.67 15.24L143.67 14.70Q143.61 13.56 142.91 12.72Q142.20 11.88 141.18 11.88L141.18 11.88Q140.16 11.88 139.83 13.05L139.83 13.05Q139.53 13.98 139.53 15.45L139.53 15.45Q139.53 16.02 139.56 16.41L139.56 16.41L139.56 17.22L139.50 18.60Q139.44 19.23 139.44 19.98L139.44 19.98Q139.44 21.60 139.53 23.19L139.53 23.19Q139.65 25.44 140.13 27.57L140.13 27.57Q140.61 29.79 141.54 29.79L141.54 29.79ZM169.17 30.78Q168.51 30.78 168.36 30.21L168.36 30.21Q168.24 29.85 168.24 29.19L168.24 29.19Q168.24 27.90 168.36 26.01L168.36 26.01Q168.51 24.21 168.51 22.80L168.51 22.80Q168.51 21.21 168.60 18.03L168.60 18.03L168.66 13.29Q168.66 13.02 168.57 12.48L168.57 12.48L168.48 11.73L168.48 11.58Q168.48 10.89 168.69 10.56Q168.90 10.23 169.47 10.23L169.47 10.23Q170.25 10.23 171.18 10.68Q172.11 11.13 172.53 11.82L172.53 11.82Q173.40 13.26 173.40 15.42L173.40 15.42Q173.40 17.04 173.13 18.14Q172.86 19.23 172.20 20.16L172.20 20.16Q173.01 20.94 173.30 22.16Q173.58 23.37 173.58 25.20L173.58 25.20Q173.58 27.03 172.95 28.38L172.95 28.38Q172.23 29.91 170.85 30.48L170.85 30.48Q170.01 30.78 169.17 30.78L169.17 30.78ZM170.13 19.29Q171.69 19.26 171.69 15.66L171.69 15.66Q171.69 11.79 170.46 11.61L170.46 11.61Q170.13 12.30 170.13 14.85L170.13 14.85L170.13 19.29ZM169.95 29.25Q170.91 29.04 171.45 28.11Q171.99 27.18 171.99 25.98L171.99 25.98Q171.99 24.72 171.84 23.76L171.84 23.76Q171.72 23.01 171.53 22.52Q171.33 22.02 171.00 21.60L171.00 21.60Q170.64 21.15 170.16 21.06L170.16 21.06Q170.04 22.77 170.04 25.59L170.04 25.59Q170.04 25.77 169.98 26.73L169.98 26.73L169.92 27.75Q169.92 27.81 169.95 27.84L169.95 27.84L169.95 27.90L169.95 29.25ZM185.01 30.54Q184.89 30.51 184.62 30.48Q184.35 30.45 184.17 30.33L184.17 30.33Q183.72 30.03 183.81 29.31L183.81 29.31L183.84 28.65Q183.96 27.03 183.96 26.22L183.96 26.22Q183.96 21.51 183.87 16.74L183.87 16.74Q183.87 14.28 183.72 11.52L183.72 11.52Q183.69 11.04 183.95 10.71Q184.20 10.38 184.59 10.38L184.59 10.38Q184.95 10.38 185.33 10.71Q185.70 11.04 185.67 11.49L185.67 11.49Q185.46 12.39 185.46 15.09L185.46 15.09L185.46 17.49Q185.46 18.15 185.52 19.59L185.52 19.59Q185.61 19.47 186.09 18.48L186.09 18.48Q186.15 18.36 186.30 18.11Q186.45 17.85 186.51 17.58L186.51 17.58Q187.50 14.58 188.13 12.96L188.13 12.96Q188.40 12.09 188.85 11.48Q189.30 10.86 190.08 10.62L190.08 10.62Q190.35 10.53 190.82 10.68Q191.28 10.83 191.43 11.04L191.43 11.04Q191.61 11.25 191.61 11.55L191.61 11.55Q191.61 11.85 191.42 12.09Q191.22 12.33 190.92 12.39L190.92 12.39Q190.17 12.51 189.75 12.93Q189.33 13.35 189.14 13.82Q188.94 14.28 188.67 15.21L188.67 15.21L187.47 18.15Q187.38 18.36 187.22 18.87Q187.05 19.38 186.90 19.65L186.90 19.65Q186.84 19.74 186.72 19.83Q186.60 19.92 186.51 20.01L186.51 20.01Q186.72 19.86 187.07 20.10Q187.41 20.34 187.77 20.76L187.77 20.76Q188.01 21.24 188.12 21.81Q188.22 22.38 188.25 22.47L188.25 22.47Q188.31 22.95 188.37 23.19L188.37 23.19Q188.73 24.15 188.88 24.95Q189.03 25.74 189.09 26.82L189.09 26.82Q189.18 27.90 189.69 28.71L189.69 28.71Q189.84 28.74 190.04 28.77Q190.23 28.80 190.47 28.83L190.47 28.83Q190.95 28.86 191.10 29.43L191.10 29.43Q191.13 29.49 191.13 29.64L191.13 29.64Q191.13 29.97 190.83 30.27L190.83 30.27Q190.38 30.72 189.69 30.72L189.69 30.72Q189.18 30.72 188.72 30.45Q188.25 30.18 188.04 29.73L188.04 29.73Q187.86 29.43 187.74 28.92L187.74 28.92Q187.53 27.63 187.38 26.31L187.38 26.31Q187.26 24.48 187.13 23.54Q186.99 22.59 186.54 21.72L186.54 21.72Q186.42 21.51 186.30 21.41Q186.18 21.30 185.97 21.30L185.97 21.30Q185.79 21.30 185.52 21.39L185.52 21.39Q185.46 23.55 185.46 25.59L185.46 25.59Q185.46 26.88 185.58 29.52L185.58 29.52Q185.61 29.85 185.48 30.05Q185.34 30.24 185.01 30.54L185.01 30.54ZM202.50 30.78Q202.23 30.78 202.01 30.51Q201.78 30.24 201.90 29.97L201.90 29.97Q201.99 29.70 202.32 29.07L202.32 29.07Q203.25 27.54 203.55 24.93L203.55 24.93Q203.58 24.75 203.33 24.46Q203.07 24.18 203.01 24.03L203.01 24.03L202.59 23.43Q201.96 22.56 201.56 21.83Q201.15 21.09 200.79 19.86L200.79 19.86Q200.64 19.35 200.58 18.77Q200.52 18.18 200.52 18.03L200.52 18.03L200.46 17.34Q200.43 16.83 200.37 16.43Q200.31 16.02 200.28 15.75L200.28 15.75Q200.01 14.01 200.01 12.90L200.01 12.90Q200.01 12.48 200.04 12.27L200.04 12.27Q200.07 11.82 200.06 11.46Q200.04 11.10 200.04 10.86L200.04 10.86Q200.07 10.26 200.46 10.26L200.46 10.26Q200.55 10.26 200.79 10.32L200.79 10.32Q201.90 10.65 201.90 11.58L201.90 11.58Q201.90 11.82 201.84 12.48L201.84 12.48L201.75 13.71Q201.75 14.55 201.78 14.97L201.78 14.97Q202.02 17.46 202.32 19.89L202.32 19.89Q202.41 20.55 202.76 21.11Q203.10 21.66 203.48 22.01Q203.85 22.35 203.91 22.35L203.91 22.35Q204.09 21.81 204.12 21.63L204.12 21.63Q204.30 18.96 204.33 17.70L204.33 17.70Q204.36 16.65 204.36 14.22L204.36 14.22L204.36 10.71Q204.39 10.47 204.50 10.37Q204.60 10.26 204.87 10.26L204.87 10.26Q205.47 10.26 205.86 10.70Q206.25 11.13 206.16 11.73L206.16 11.73Q206.07 12.45 206.07 13.65L206.07 13.65Q206.07 14.37 206.10 14.64L206.10 14.64Q206.13 14.91 206.13 15.39L206.13 15.39Q206.13 16.14 206.01 17.52L206.01 17.52Q206.01 17.85 205.95 18.57L205.95 18.57Q205.89 19.47 205.65 21.33L205.65 21.33L205.53 22.32Q205.35 24.12 204.81 26.76L204.81 26.76Q204.63 27.60 204.27 28.52Q203.91 29.43 203.46 30.21L203.46 30.21Q203.37 30.42 203.07 30.60Q202.77 30.78 202.50 30.78L202.50 30.78ZM220.14 30.90Q219.48 30.90 218.75 30.71Q218.01 30.51 217.62 30.27L217.62 30.27Q215.61 28.98 215.61 23.22L215.61 23.22L215.61 22.41L215.61 21.48L215.61 20.76Q215.61 19.56 215.64 18.62Q215.67 17.67 215.76 16.56L215.76 16.56Q215.85 15.39 216.03 14.66Q216.21 13.92 216.63 12.99L216.63 12.99Q216.99 12.12 217.52 11.64Q218.04 11.16 218.88 10.83L218.88 10.83Q219.63 10.50 220.74 10.50L220.74 10.50Q221.19 10.50 221.43 10.71Q221.67 10.92 221.67 11.25L221.67 11.25Q221.67 11.55 221.48 11.79Q221.28 12.03 221.01 12.06L221.01 12.06L219.60 12.06Q219.00 12.06 218.55 12.81Q218.10 13.56 217.92 14.76L217.92 14.76Q217.53 16.98 217.53 18.36L217.53 18.36L217.53 18.51L217.47 21.39Q217.41 22.68 217.41 24.30L217.41 24.30Q217.41 25.44 217.50 26.16L217.50 26.16Q217.65 27.24 218.01 27.96L218.01 27.96Q218.37 28.77 219.24 29.13L219.24 29.13Q219.69 29.31 220.23 29.31L220.23 29.31Q220.56 29.31 220.89 29.07L220.89 29.07Q221.28 29.07 221.54 29.23Q221.79 29.40 221.79 29.73L221.79 29.73Q221.79 30.90 220.14 30.90L220.14 30.90ZM237.33 30.75Q236.64 30.75 236.31 30.54Q235.98 30.33 235.98 29.76L235.98 29.76Q235.98 28.86 235.68 26.70L235.68 26.70L235.56 26.07L232.59 25.62Q232.41 26.31 232.08 28.41L232.08 28.41Q231.90 29.88 231.51 30.36L231.51 30.36Q231.30 30.63 230.91 30.63L230.91 30.63Q230.55 30.63 230.25 30.41Q229.95 30.18 229.95 29.85L229.95 29.85L230.01 29.70L230.04 29.58Q232.02 21.87 233.04 14.37L233.04 14.37Q233.04 14.25 233.07 13.96Q233.10 13.68 233.13 13.14L233.13 13.14Q233.22 12.03 233.33 11.37Q233.43 10.71 233.67 10.38L233.67 10.38L234.69 10.38Q235.11 10.38 235.41 10.58Q235.71 10.77 235.71 11.13L235.71 11.13Q235.71 13.41 236.34 17.91L236.34 17.91Q236.94 22.53 236.94 24.39L236.94 24.39Q236.94 24.57 237.09 25.32L237.09 25.32Q237.24 26.01 237.24 26.22L237.24 26.22Q237.24 26.43 237.54 28.02L237.54 28.02Q237.81 29.46 237.81 29.88L237.81 29.88L237.81 29.91Q237.81 30.57 237.33 30.75L237.33 30.75ZM235.35 24.99Q235.26 24.54 235.26 23.88L235.26 23.88Q235.26 21.18 234.78 16.98L234.78 16.98L234.48 13.86Q233.19 20.91 232.71 24.51L232.71 24.51Q233.16 24.81 235.35 24.99L235.35 24.99ZM263.76 30.90Q263.10 30.90 262.37 30.71Q261.63 30.51 261.24 30.27L261.24 30.27Q259.23 28.98 259.23 23.22L259.23 23.22L259.23 22.41L259.23 21.48L259.23 20.76Q259.23 19.56 259.26 18.62Q259.29 17.67 259.38 16.56L259.38 16.56Q259.47 15.39 259.65 14.66Q259.83 13.92 260.25 12.99L260.25 12.99Q260.61 12.12 261.14 11.64Q261.66 11.16 262.50 10.83L262.50 10.83Q263.25 10.50 264.36 10.50L264.36 10.50Q264.81 10.50 265.05 10.71Q265.29 10.92 265.29 11.25L265.29 11.25Q265.29 11.55 265.10 11.79Q264.90 12.03 264.63 12.06L264.63 12.06L263.22 12.06Q262.62 12.06 262.17 12.81Q261.72 13.56 261.54 14.76L261.54 14.76Q261.15 16.98 261.15 18.36L261.15 18.36L261.15 18.51L261.09 21.39Q261.03 22.68 261.03 24.30L261.03 24.30Q261.03 25.44 261.12 26.16L261.12 26.16Q261.27 27.24 261.63 27.96L261.63 27.96Q261.99 28.77 262.86 29.13L262.86 29.13Q263.31 29.31 263.85 29.31L263.85 29.31Q264.18 29.31 264.51 29.07L264.51 29.07Q264.90 29.07 265.16 29.23Q265.41 29.40 265.41 29.73L265.41 29.73Q265.41 30.90 263.76 30.90L263.76 30.90ZM275.91 30.78Q275.25 30.78 275.10 30.21L275.10 30.21Q274.98 29.85 274.98 29.19L274.98 29.19Q274.98 27.90 275.10 26.01L275.10 26.01Q275.25 24.21 275.25 22.80L275.25 22.80Q275.25 21.21 275.34 18.03L275.34 18.03L275.40 13.29Q275.40 13.02 275.31 12.48L275.31 12.48L275.22 11.73L275.22 11.58Q275.22 10.89 275.43 10.56Q275.64 10.23 276.21 10.23L276.21 10.23Q276.99 10.23 277.92 10.68Q278.85 11.13 279.27 11.82L279.27 11.82Q280.14 13.26 280.14 15.42L280.14 15.42Q280.14 17.04 279.87 18.14Q279.60 19.23 278.94 20.16L278.94 20.16Q279.75 20.94 280.04 22.16Q280.32 23.37 280.32 25.20L280.32 25.20Q280.32 27.03 279.69 28.38L279.69 28.38Q278.97 29.91 277.59 30.48L277.59 30.48Q276.75 30.78 275.91 30.78L275.91 30.78ZM276.87 19.29Q278.43 19.26 278.43 15.66L278.43 15.66Q278.43 11.79 277.20 11.61L277.20 11.61Q276.87 12.30 276.87 14.85L276.87 14.85L276.87 19.29ZM276.69 29.25Q277.65 29.04 278.19 28.11Q278.73 27.18 278.73 25.98L278.73 25.98Q278.73 24.72 278.58 23.76L278.58 23.76Q278.46 23.01 278.27 22.52Q278.07 22.02 277.74 21.60L277.74 21.60Q277.38 21.15 276.90 21.06L276.90 21.06Q276.78 22.77 276.78 25.59L276.78 25.59Q276.78 25.77 276.72 26.73L276.72 26.73L276.66 27.75Q276.66 27.81 276.69 27.84L276.69 27.84L276.69 27.90L276.69 29.25ZM294.03 31.05Q293.25 31.05 292.59 30.55Q291.93 30.06 291.51 29.22L291.51 29.22Q290.64 27.39 290.43 25.23L290.43 25.23Q290.16 23.19 290.16 21.30L290.16 21.30Q290.16 20.94 290.19 20.70L290.19 20.70L290.19 20.16Q290.19 20.01 290.16 20.01L290.16 20.01L290.16 19.47L290.19 17.37Q290.22 16.41 290.43 14.31L290.43 14.31Q290.58 12.87 291.12 11.52L291.12 11.52Q291.33 10.92 291.66 10.61Q291.99 10.29 292.41 10.29L292.41 10.29Q293.61 10.29 294.57 10.73Q295.53 11.16 296.19 11.94L296.19 11.94Q296.79 12.69 297.21 13.79Q297.63 14.88 297.81 16.11L297.81 16.11Q297.99 17.37 297.99 18.78L297.99 18.78L297.99 19.02Q297.99 19.95 298.02 20.70L298.02 20.70L298.05 22.41Q298.05 31.05 294.03 31.05L294.03 31.05ZM293.91 29.79Q294.45 29.79 294.90 29.36Q295.35 28.92 295.59 28.17L295.59 28.17Q296.16 26.64 296.28 24.87L296.28 24.87Q296.43 23.34 296.43 22.23L296.43 22.23Q296.43 20.88 296.22 18.69L296.22 18.69Q296.04 16.38 296.04 15.24L296.04 15.24L296.04 14.70Q295.98 13.56 295.28 12.72Q294.57 11.88 293.55 11.88L293.55 11.88Q292.53 11.88 292.20 13.05L292.20 13.05Q291.90 13.98 291.90 15.45L291.90 15.45Q291.90 16.02 291.93 16.41L291.93 16.41L291.93 17.22L291.87 18.60Q291.81 19.23 291.81 19.98L291.81 19.98Q291.81 21.60 291.90 23.19L291.90 23.19Q292.02 25.44 292.50 27.57L292.50 27.57Q292.98 29.79 293.91 29.79L293.91 29.79ZM307.62 30.75Q307.35 30.69 307.19 30.59Q307.02 30.48 306.99 30.21L306.99 30.21Q307.02 30.03 307.14 29.82Q307.26 29.61 307.38 29.58L307.38 29.58Q307.65 29.55 307.77 29.40Q307.89 29.25 307.98 28.98L307.98 28.98Q308.01 28.80 308.16 28.08Q308.31 27.36 308.34 26.70L308.34 26.70L308.37 26.19Q308.37 25.83 308.31 25.17L308.31 25.17Q308.25 24.51 308.25 24.21L308.25 24.21Q308.25 22.47 309.54 20.79L309.54 20.79Q307.80 19.20 307.80 17.31L307.80 17.31L307.80 16.35Q307.80 14.79 308.04 14.01L308.04 14.01Q308.25 13.20 308.82 12.24L308.82 12.24Q309.03 11.79 309.39 11.54Q309.75 11.28 310.19 11.07Q310.62 10.86 310.86 10.74L310.86 10.74Q311.04 10.65 311.39 10.56Q311.73 10.47 311.94 10.23L311.94 10.23Q312.33 10.08 312.72 10.08L312.72 10.08Q313.29 10.08 313.73 10.35Q314.16 10.62 314.16 10.98L314.16 10.98Q314.16 12.27 314.10 15.03L314.10 15.03L314.01 19.29L313.98 20.97L314.01 22.65Q314.07 24.03 314.25 26.55L314.25 26.55L314.37 28.50Q314.40 28.77 314.46 29.10Q314.52 29.43 314.52 29.64L314.52 29.64Q314.52 30.45 313.68 30.45L313.68 30.45Q313.32 30.45 313.04 30.27Q312.75 30.09 312.72 29.76L312.72 29.76Q312.63 29.07 312.63 28.35L312.63 28.35L312.54 20.88Q311.49 21.06 310.98 21.27Q310.47 21.48 310.25 21.83Q310.02 22.17 309.90 22.80L309.90 22.80Q309.81 23.19 309.81 23.97L309.81 23.97Q309.81 24.36 309.87 25.08L309.87 25.08L309.90 26.22Q309.90 27.51 309.75 28.39Q309.60 29.28 309.09 30.06L309.09 30.06Q308.85 30.45 308.43 30.63Q308.01 30.81 307.62 30.75L307.62 30.75ZM310.59 19.98Q310.71 20.01 310.98 20.01L310.98 20.01Q311.61 20.01 312.60 19.74L312.60 19.74Q312.60 18.96 312.54 17.34L312.54 17.34Q312.45 15.81 312.45 14.31L312.45 14.31Q312.45 13.05 312.54 11.76L312.54 11.76Q311.73 11.88 311.10 12.18Q310.47 12.48 310.26 12.84L310.26 12.84Q309.48 14.31 309.45 15.72L309.45 15.72Q309.45 17.31 309.51 18.06L309.51 18.06Q309.54 18.72 309.81 19.29Q310.08 19.86 310.59 19.98L310.59 19.98ZM338.43 30.42Q338.04 30.30 338.01 29.91L338.01 29.91L338.01 29.46Q337.95 28.20 337.89 25.68L337.89 25.68Q337.77 23.49 337.74 22.32L337.74 22.32Q337.65 20.49 337.53 16.83L337.53 16.83Q337.50 16.20 337.47 15.09Q337.44 13.98 337.44 13.41L337.44 13.41Q337.41 13.08 337.41 12.48L337.41 12.48Q337.41 11.79 337.47 11.46L337.47 11.46Q337.59 10.53 338.49 10.59L338.49 10.59Q339.33 10.59 339.39 11.55L339.39 11.55L339.39 11.91L339.36 19.47L339.36 23.04L339.36 24.84Q339.36 25.26 339.42 25.82Q339.48 26.37 339.51 26.61L339.51 26.61Q339.66 25.74 340.01 24.83Q340.35 23.91 340.44 23.70L340.44 23.70Q340.89 22.62 341.10 21.93L341.10 21.93Q341.82 19.62 342.96 16.26L342.96 16.26Q343.20 15.57 343.50 14.58L343.50 14.58Q344.31 12.03 344.61 11.28L344.61 11.28Q344.88 10.56 345.42 10.38L345.42 10.38Q345.69 10.29 345.96 10.29L345.96 10.29Q346.38 10.29 346.83 10.56L346.83 10.56L346.83 12Q346.83 14.25 346.92 16.65L346.92 16.65Q346.95 17.16 346.95 18.18L346.95 18.18L346.95 19.05Q346.95 19.32 346.94 19.77Q346.92 20.22 346.95 20.82L346.95 20.82L347.04 28.92Q347.04 29.37 346.83 29.91L346.83 29.91Q346.74 30.15 346.53 30.29Q346.32 30.42 346.08 30.42L346.08 30.42Q345.24 30.42 345.24 29.64L345.24 29.64Q345.24 28.74 345.33 27.90L345.33 27.90Q345.39 26.76 345.39 26.16L345.39 26.16Q345.33 20.22 345.24 17.28L345.24 17.28Q345.24 16.83 345.12 15.81L345.12 15.81L345.03 14.73Q344.76 15.03 344.73 15.12L344.73 15.12L344.25 16.59Q343.77 18.15 343.50 18.90L343.50 18.90L340.89 26.16L339.54 29.85Q339.30 30.48 338.82 30.48L338.82 30.48Q338.73 30.48 338.43 30.42L338.43 30.42ZM361.59 30.90Q360.93 30.90 360.20 30.71Q359.46 30.51 359.07 30.27L359.07 30.27Q357.06 28.98 357.06 23.22L357.06 23.22L357.06 22.41L357.06 21.48L357.06 20.76Q357.06 19.56 357.09 18.62Q357.12 17.67 357.21 16.56L357.21 16.56Q357.30 15.39 357.48 14.66Q357.66 13.92 358.08 12.99L358.08 12.99Q358.44 12.12 358.97 11.64Q359.49 11.16 360.33 10.83L360.33 10.83Q361.08 10.50 362.19 10.50L362.19 10.50Q362.64 10.50 362.88 10.71Q363.12 10.92 363.12 11.25L363.12 11.25Q363.12 11.55 362.93 11.79Q362.73 12.03 362.46 12.06L362.46 12.06L361.05 12.06Q360.45 12.06 360.00 12.81Q359.55 13.56 359.37 14.76L359.37 14.76Q358.98 16.98 358.98 18.36L358.98 18.36L358.98 18.51L358.92 21.39Q358.86 22.68 358.86 24.30L358.86 24.30Q358.86 25.44 358.95 26.16L358.95 26.16Q359.10 27.24 359.46 27.96L359.46 27.96Q359.82 28.77 360.69 29.13L360.69 29.13Q361.14 29.31 361.68 29.31L361.68 29.31Q362.01 29.31 362.34 29.07L362.34 29.07Q362.73 29.07 362.99 29.23Q363.24 29.40 363.24 29.73L363.24 29.73Q363.24 30.90 361.59 30.90L361.59 30.90ZM375.09 30.39L374.55 30L374.52 28.83Q374.49 28.32 374.49 27.69L374.49 27.69L374.52 26.67Q374.43 26.34 374.07 20.10Q373.71 13.86 373.65 12.09L373.65 12.09Q371.91 12.03 371.43 11.73L371.43 11.73Q371.10 11.49 371.10 11.19L371.10 11.19Q371.10 10.95 371.42 10.76Q371.73 10.56 372.06 10.56L372.06 10.56Q372.90 10.56 374.10 10.68L374.10 10.68Q375.24 10.83 376.14 10.83L376.14 10.83L376.38 10.83L376.62 10.83Q377.55 10.83 377.55 11.55L377.55 11.55Q377.55 11.91 377.25 12.14Q376.95 12.36 376.56 12.36L376.56 12.36Q376.29 12.36 375.78 12.27L375.78 12.27L375.18 12.15L375.15 12.30L375.12 12.45Q375.12 15.12 375.63 20.97L375.63 20.97Q376.11 26.46 376.11 29.49L376.11 29.49Q376.11 29.85 375.80 30.12Q375.48 30.39 375.09 30.39L375.09 30.39ZM390.99 31.05Q390.21 31.05 389.55 30.55Q388.89 30.06 388.47 29.22L388.47 29.22Q387.60 27.39 387.39 25.23L387.39 25.23Q387.12 23.19 387.12 21.30L387.12 21.30Q387.12 20.94 387.15 20.70L387.15 20.70L387.15 20.16Q387.15 20.01 387.12 20.01L387.12 20.01L387.12 19.47L387.15 17.37Q387.18 16.41 387.39 14.31L387.39 14.31Q387.54 12.87 388.08 11.52L388.08 11.52Q388.29 10.92 388.62 10.61Q388.95 10.29 389.37 10.29L389.37 10.29Q390.57 10.29 391.53 10.73Q392.49 11.16 393.15 11.94L393.15 11.94Q393.75 12.69 394.17 13.79Q394.59 14.88 394.77 16.11L394.77 16.11Q394.95 17.37 394.95 18.78L394.95 18.78L394.95 19.02Q394.95 19.95 394.98 20.70L394.98 20.70L395.01 22.41Q395.01 31.05 390.99 31.05L390.99 31.05ZM390.87 29.79Q391.41 29.79 391.86 29.36Q392.31 28.92 392.55 28.17L392.55 28.17Q393.12 26.64 393.24 24.87L393.24 24.87Q393.39 23.34 393.39 22.23L393.39 22.23Q393.39 20.88 393.18 18.69L393.18 18.69Q393.00 16.38 393.00 15.24L393.00 15.24L393.00 14.70Q392.94 13.56 392.24 12.72Q391.53 11.88 390.51 11.88L390.51 11.88Q389.49 11.88 389.16 13.05L389.16 13.05Q388.86 13.98 388.86 15.45L388.86 15.45Q388.86 16.02 388.89 16.41L388.89 16.41L388.89 17.22L388.83 18.60Q388.77 19.23 388.77 19.98L388.77 19.98Q388.77 21.60 388.86 23.19L388.86 23.19Q388.98 25.44 389.46 27.57L389.46 27.57Q389.94 29.79 390.87 29.79L390.87 29.79ZM406.50 31.05L405.87 30.69Q405.48 29.10 405.48 26.28L405.48 26.28L405.54 23.61Q405.60 22.41 405.60 20.94L405.60 20.94Q405.42 20.52 405.42 20.19L405.42 20.19L405.42 20.10Q405.72 19.53 405.72 17.52L405.72 17.52L405.75 16.14Q405.78 15.48 405.78 14.67L405.78 14.67Q405.78 12.90 405.54 11.88L405.54 11.88Q405.63 11.46 405.84 11.14Q406.05 10.83 406.35 10.83L406.35 10.83L407.67 10.83Q408.51 10.83 409.14 11.21Q409.77 11.58 410.10 12.27L410.10 12.27Q410.70 13.50 410.70 15.18L410.70 15.18Q410.70 16.38 410.67 17.07L410.67 17.07Q410.61 17.94 410.37 18.66L410.37 18.66Q410.28 19.05 410.12 19.30Q409.95 19.56 409.65 19.92L409.65 19.92Q409.23 20.43 408.27 20.88L408.27 20.88Q407.88 21.09 407.25 21.27L407.25 21.27L407.25 24.48L407.31 26.40L407.37 27.33Q407.49 29.01 407.49 30.18L407.49 30.18Q407.49 30.54 407.19 30.80Q406.89 31.05 406.50 31.05L406.50 31.05ZM407.28 20.04Q409.05 19.77 409.05 14.97L409.05 14.97Q409.05 14.10 408.96 13.62L408.96 13.62Q408.87 13.26 408.72 13.04Q408.57 12.81 408.27 12.66L408.27 12.66Q407.94 12.48 407.55 12.48L407.55 12.48Q407.55 12.45 407.22 12.45L407.22 12.45L407.22 14.16Q407.22 15.93 407.25 17.31L407.25 17.31Q407.25 18.87 407.28 19.35L407.28 19.35L407.28 19.98L407.28 20.04ZM421.53 30.42Q421.14 30.30 421.11 29.91L421.11 29.91L421.11 29.46Q421.05 28.20 420.99 25.68L420.99 25.68Q420.87 23.49 420.84 22.32L420.84 22.32Q420.75 20.49 420.63 16.83L420.63 16.83Q420.60 16.20 420.57 15.09Q420.54 13.98 420.54 13.41L420.54 13.41Q420.51 13.08 420.51 12.48L420.51 12.48Q420.51 11.79 420.57 11.46L420.57 11.46Q420.69 10.53 421.59 10.59L421.59 10.59Q422.43 10.59 422.49 11.55L422.49 11.55L422.49 11.91L422.46 19.47L422.46 23.04L422.46 24.84Q422.46 25.26 422.52 25.82Q422.58 26.37 422.61 26.61L422.61 26.61Q422.76 25.74 423.11 24.83Q423.45 23.91 423.54 23.70L423.54 23.70Q423.99 22.62 424.20 21.93L424.20 21.93Q424.92 19.62 426.06 16.26L426.06 16.26Q426.30 15.57 426.60 14.58L426.60 14.58Q427.41 12.03 427.71 11.28L427.71 11.28Q427.98 10.56 428.52 10.38L428.52 10.38Q428.79 10.29 429.06 10.29L429.06 10.29Q429.48 10.29 429.93 10.56L429.93 10.56L429.93 12Q429.93 14.25 430.02 16.65L430.02 16.65Q430.05 17.16 430.05 18.18L430.05 18.18L430.05 19.05Q430.05 19.32 430.04 19.77Q430.02 20.22 430.05 20.82L430.05 20.82L430.14 28.92Q430.14 29.37 429.93 29.91L429.93 29.91Q429.84 30.15 429.63 30.29Q429.42 30.42 429.18 30.42L429.18 30.42Q428.34 30.42 428.34 29.64L428.34 29.64Q428.34 28.74 428.43 27.90L428.43 27.90Q428.49 26.76 428.49 26.16L428.49 26.16Q428.43 20.22 428.34 17.28L428.34 17.28Q428.34 16.83 428.22 15.81L428.22 15.81L428.13 14.73Q427.86 15.03 427.83 15.12L427.83 15.12L427.35 16.59Q426.87 18.15 426.60 18.90L426.60 18.90L423.99 26.16L422.64 29.85Q422.40 30.48 421.92 30.48L421.92 30.48Q421.83 30.48 421.53 30.42L421.53 30.42ZM440.04 30.75Q439.77 30.69 439.61 30.59Q439.44 30.48 439.41 30.21L439.41 30.21Q439.44 30.03 439.56 29.82Q439.68 29.61 439.80 29.58L439.80 29.58Q440.07 29.55 440.19 29.40Q440.31 29.25 440.40 28.98L440.40 28.98Q440.43 28.80 440.58 28.08Q440.73 27.36 440.76 26.70L440.76 26.70L440.79 26.19Q440.79 25.83 440.73 25.17L440.73 25.17Q440.67 24.51 440.67 24.21L440.67 24.21Q440.67 22.47 441.96 20.79L441.96 20.79Q440.22 19.20 440.22 17.31L440.22 17.31L440.22 16.35Q440.22 14.79 440.46 14.01L440.46 14.01Q440.67 13.20 441.24 12.24L441.24 12.24Q441.45 11.79 441.81 11.54Q442.17 11.28 442.61 11.07Q443.04 10.86 443.28 10.74L443.28 10.74Q443.46 10.65 443.81 10.56Q444.15 10.47 444.36 10.23L444.36 10.23Q444.75 10.08 445.14 10.08L445.14 10.08Q445.71 10.08 446.15 10.35Q446.58 10.62 446.58 10.98L446.58 10.98Q446.58 12.27 446.52 15.03L446.52 15.03L446.43 19.29L446.40 20.97L446.43 22.65Q446.49 24.03 446.67 26.55L446.67 26.55L446.79 28.50Q446.82 28.77 446.88 29.10Q446.94 29.43 446.94 29.64L446.94 29.64Q446.94 30.45 446.10 30.45L446.10 30.45Q445.74 30.45 445.46 30.27Q445.17 30.09 445.14 29.76L445.14 29.76Q445.05 29.07 445.05 28.35L445.05 28.35L444.96 20.88Q443.91 21.06 443.40 21.27Q442.89 21.48 442.67 21.83Q442.44 22.17 442.32 22.80L442.32 22.80Q442.23 23.19 442.23 23.97L442.23 23.97Q442.23 24.36 442.29 25.08L442.29 25.08L442.32 26.22Q442.32 27.51 442.17 28.39Q442.02 29.28 441.51 30.06L441.51 30.06Q441.27 30.45 440.85 30.63Q440.43 30.81 440.04 30.75L440.04 30.75ZM443.01 19.98Q443.13 20.01 443.40 20.01L443.40 20.01Q444.03 20.01 445.02 19.74L445.02 19.74Q445.02 18.96 444.96 17.34L444.96 17.34Q444.87 15.81 444.87 14.31L444.87 14.31Q444.87 13.05 444.96 11.76L444.96 11.76Q444.15 11.88 443.52 12.18Q442.89 12.48 442.68 12.84L442.68 12.84Q441.90 14.31 441.87 15.72L441.87 15.72Q441.87 17.31 441.93 18.06L441.93 18.06Q441.96 18.72 442.23 19.29Q442.50 19.86 443.01 19.98L443.01 19.98Z"></path>
              </g>
    </g>
  </svg>